<?xml version="1.0" standalone="no"?>
<!DOCTYPE svg PUBLIC "-//W3C//DTD SVG 20010904//EN"
 "http://www.w3.org/TR/2001/REC-SVG-20010904/DTD/svg10.dtd">
<svg version="1.0" xmlns="http://www.w3.org/2000/svg"
 width="1280.000000pt" height="885.000000pt" viewBox="0 0 1280.000000 885.000000"
 preserveAspectRatio="xMidYMid meet">
<metadata>
Created by potrace 1.15, written by Peter Selinger 2001-2017
</metadata>
<g transform="translate(0.000000,885.000000) scale(0.100000,-0.100000)"
fill="#000000" stroke="none">
<path d="M2605 7429 c-271 -39 -589 -175 -785 -338 -115 -95 -195 -180 -271
-288 -117 -165 -187 -330 -149 -353 20 -12 70 7 104 39 45 42 160 120 212 143
66 29 203 65 247 66 21 0 43 5 50 10 39 33 464 37 651 8 181 -29 204 -34 258
-59 29 -14 96 -42 148 -62 144 -56 344 -138 355 -146 6 -4 51 -23 100 -42 50
-19 149 -62 220 -96 72 -34 144 -68 160 -76 17 -7 93 -43 170 -79 161 -74 297
-134 405 -177 148 -60 398 -189 423 -218 18 -22 25 -45 30 -97 11 -117 11
-118 -149 -199 -128 -65 -246 -135 -351 -206 -42 -30 -219 -105 -316 -134
-116 -36 -277 -70 -447 -95 -36 -5 -123 -19 -195 -30 -71 -11 -170 -25 -219
-30 -50 -6 -119 -15 -155 -21 -36 -5 -119 -14 -186 -19 -204 -16 -579 -58
-704 -79 -31 -6 -103 -17 -161 -26 -166 -25 -415 -90 -534 -140 -203 -84 -344
-176 -477 -312 -88 -89 -145 -164 -168 -221 -15 -36 -7 -101 12 -103 7 -1 138
-2 292 -4 159 -1 299 -7 325 -13 84 -20 285 -36 445 -36 145 0 172 3 285 31
356 89 521 110 773 99 147 -7 175 -11 301 -47 77 -22 153 -46 170 -53 17 -8
56 -24 86 -36 30 -12 151 -71 269 -131 117 -60 225 -109 239 -109 14 0 102
-31 196 -69 94 -38 182 -72 196 -76 29 -9 239 -100 357 -156 46 -22 85 -39 88
-39 17 0 470 -229 529 -267 39 -26 152 -88 251 -138 272 -139 388 -219 506
-352 159 -179 152 -170 251 -315 58 -86 158 -272 158 -295 0 -19 166 -302 252
-431 18 -28 50 -81 71 -118 21 -38 53 -90 70 -116 18 -26 53 -80 79 -120 26
-40 72 -104 102 -143 218 -275 292 -378 330 -458 96 -203 121 -278 164 -499
19 -100 25 -149 18 -152 -6 -2 1142 -5 2552 -5 l2562 -1 0 1563 0 1564 -77 16
c-43 9 -114 24 -158 32 -147 30 -306 81 -495 161 -69 29 -154 62 -190 74 -36
11 -78 27 -95 35 -16 7 -57 18 -90 25 -75 16 -221 61 -300 93 -150 62 -199
101 -437 340 -256 258 -270 279 -334 482 -42 134 -96 269 -118 294 -8 9 -42
72 -76 141 -55 110 -173 287 -282 420 -15 19 -67 87 -115 150 -48 63 -121 149
-161 190 -40 41 -103 110 -140 153 -190 223 -379 421 -468 490 -97 75 -247
194 -376 298 -51 41 -124 93 -163 114 -75 41 -263 164 -332 217 -101 77 -249
142 -563 248 -147 49 -329 104 -456 139 -38 10 -113 30 -166 45 -104 28 -302
70 -508 108 -269 49 -737 13 -1007 -77 -133 -45 -222 -88 -275 -132 -46 -38
-278 -154 -345 -172 -22 -6 -51 -10 -64 -10 -13 1 -50 -3 -82 -9 -36 -7 -113
-9 -205 -6 -138 6 -163 10 -407 71 -143 36 -339 92 -435 124 -96 32 -185 59
-196 59 -12 0 -84 20 -160 44 -312 100 -451 132 -633 146 -151 11 -200 11
-286 -1z"/>
</g>
</svg>
